<svg width="48" height="48" viewBox="0 0 48 48" fill="none" xmlns="http://www.w3.org/2000/svg">
<path d="M29.9067 17.0393L24.0004 22.9455L18.0942 17.0393C17.9377 16.8988 17.7619 16.8285 17.5669 16.8285C17.3719 16.8285 17.1999 16.9028 17.0509 17.0513C16.9019 17.1998 16.8277 17.3718 16.8282 17.5673C16.8287 17.7628 16.8989 17.9385 17.0389 18.0945L22.9452 24.0008L17.0389 29.907C16.8359 30.11 16.7694 30.3523 16.8394 30.6338C16.9094 30.9153 17.0814 31.091 17.3554 31.161C17.6294 31.231 17.8754 31.1645 18.0934 30.9615L23.9997 25.0553L29.9059 30.9615C30.0624 31.102 30.2382 31.1723 30.4332 31.1723C30.6282 31.1723 30.8002 31.098 30.9492 30.9495C31.0982 30.801 31.1724 30.629 31.1719 30.4335C31.1714 30.238 31.1012 30.0623 30.9612 29.9063L25.0549 24L30.9612 18.0938C31.1642 17.8908 31.2307 17.6485 31.1607 17.367C31.0907 17.0855 30.9149 16.9098 30.6334 16.8398C30.3519 16.7698 30.1097 16.8363 29.9067 17.0393V17.0393Z" fill="#484848"/>
</svg>
