<svg width="60" height="60" viewBox="0 0 60 60" fill="none" xmlns="http://www.w3.org/2000/svg">
<rect width="12.0001" height="12" fill="#A8DEA0"/>
<rect x="12" width="12.0001" height="12" fill="#F1F2F2"/>
<rect x="24" width="12.0001" height="12" fill="#F1F2F2"/>
<rect x="36.001" width="12.0001" height="12" fill="#F1F2F2"/>
<rect x="48" width="12.0001" height="12" fill="#F1F2F2"/>
<rect y="11.9999" width="12.0001" height="12" fill="#3578A3"/>
<rect x="12" y="12" width="12.0001" height="12" fill="#3F1111"/>
<rect x="24" y="12" width="12.0001" height="12" fill="#F1F2F2"/>
<rect x="36.001" y="12" width="12.0001" height="12" fill="#3F1111"/>
<rect x="48" y="12" width="12.0001" height="12" fill="#F1F2F2"/>
<rect y="23.9999" width="12.0001" height="12" fill="#3578A3"/>
<rect x="12" y="23.9998" width="12.0001" height="12" fill="#3F1111"/>
<rect x="24" y="23.9998" width="12.0001" height="12" fill="#3F1111"/>
<rect x="36.001" y="23.9998" width="12.0001" height="12" fill="#3F1111"/>
<rect x="48" y="23.9998" width="12.0001" height="12" fill="#3578A3"/>
<rect y="36" width="12.0001" height="12" fill="#3578A3"/>
<rect x="12" y="36" width="12.0001" height="12" fill="#3F1111"/>
<rect x="24" y="36" width="12.0001" height="12" fill="#3F1111"/>
<rect x="36.001" y="36" width="12.0001" height="12" fill="#3F1111"/>
<rect x="48" y="36" width="12.0001" height="12" fill="#F1F2F2"/>
<rect y="47.9999" width="12.0001" height="12" fill="#3578A3"/>
<rect x="12" y="48" width="12.0001" height="12" fill="#A8DEA0"/>
<rect x="24" y="48" width="12.0001" height="12" fill="#A8DEA0"/>
<rect x="36.001" y="48" width="12.0001" height="12" fill="#A8DEA0"/>
<rect x="48" y="48" width="12.0001" height="12" fill="#F1F2F2"/>
</svg>
