<svg width="16" height="16" viewBox="0 0 16 16" fill="none" xmlns="http://www.w3.org/2000/svg">
<path d="M4.51562 4.64053H5.96863C6.11463 4.64053 6.23446 4.68736 6.32812 4.78103C6.42179 4.8747 6.46863 4.99186 6.46863 5.13253C6.46863 5.2732 6.42179 5.39036 6.32812 5.48403C6.23446 5.5777 6.11463 5.62986 5.96863 5.64053H3.64062C3.49463 5.6302 3.37479 5.57803 3.28112 5.48403C3.18746 5.39003 3.14062 5.27536 3.14062 5.14003V2.81203C3.14062 2.66603 3.18746 2.5462 3.28112 2.45253C3.37479 2.35886 3.49463 2.31203 3.64062 2.31203C3.78662 2.31203 3.90646 2.35886 4.00012 2.45253C4.09379 2.5462 4.14062 2.66603 4.14062 2.81203V3.59353C5.03663 2.79153 6.06012 2.2942 7.21112 2.10153C8.36212 1.90886 9.49496 2.04686 10.6096 2.51553C11.714 3.01553 12.5863 3.7552 13.2266 4.73453C13.867 5.71386 14.1925 6.8077 14.2031 8.01603C14.1615 9.71403 13.5755 11.128 12.4451 12.258C11.3148 13.388 9.90079 13.974 8.20312 14.016C6.50513 13.9744 5.09112 13.3884 3.96112 12.258C2.83112 11.1277 2.24512 9.7137 2.20312 8.01603H3.20312C3.23446 9.4327 3.72146 10.6124 4.66412 11.555C5.60679 12.4977 6.78646 12.9847 8.20312 13.016C9.61979 12.9847 10.797 12.4977 11.7346 11.555C12.6723 10.6124 13.162 9.4327 13.2036 8.01603C13.1933 6.96403 12.9016 6.02386 12.3286 5.19553C11.7556 4.3672 10.9848 3.7552 10.0161 3.35953C9.03679 2.99486 8.05496 2.92453 7.07062 3.14853C6.08629 3.37253 5.23479 3.86986 4.51612 4.64053H4.51562Z" fill="#484848"/>
</svg>
