<svg width="48" height="49" viewBox="0 0 48 49" fill="none" xmlns="http://www.w3.org/2000/svg">
<path d="M18.5 29H29.5C29.646 29 29.7658 29.0468 29.8595 29.1405C29.9532 29.2342 30 29.354 30 29.5C30 29.646 29.9532 29.7658 29.8595 29.8595C29.7658 29.9532 29.646 30 29.5 30H18.5C18.354 30 18.2342 29.9532 18.1405 29.8595C18.0468 29.7658 18 29.646 18 29.5C18 29.354 18.0468 29.2342 18.1405 29.1405C18.2342 29.0468 18.354 29 18.5 29ZM24.5 25.0315L28.1875 21.344L28.9065 22.047L23.9535 27L19.0005 22.047L19.7035 21.344L23.5005 25.141V18.0005H24.5005V25.032L24.5 25.0315Z" fill="#484848"/>
</svg>
