<svg width="16" height="16" viewBox="0 0 16 16" fill="none" xmlns="http://www.w3.org/2000/svg">
<path d="M2.5 13H13.5C13.646 13 13.7658 13.0468 13.8595 13.1405C13.9532 13.2342 14 13.354 14 13.5C14 13.646 13.9532 13.7658 13.8595 13.8595C13.7658 13.9532 13.646 14 13.5 14H2.5C2.354 14 2.23417 13.9532 2.1405 13.8595C2.04683 13.7658 2 13.646 2 13.5C2 13.354 2.04683 13.2342 2.1405 13.1405C2.23417 13.0468 2.354 13 2.5 13ZM8.5 9.03149L12.1875 5.34399L12.9065 6.04699L7.9535 11L3.0005 6.04699L3.7035 5.34399L7.5005 9.14099V2.00049H8.5005V9.03199L8.5 9.03149Z" fill="black"/>
</svg>
