<svg width="48" height="49" viewBox="0 0 48 49" fill="none" xmlns="http://www.w3.org/2000/svg">
<path d="M28.0625 28.422C27.1562 29.2347 26.1275 29.7347 24.9765 29.922C23.8255 30.1094 22.6978 29.9687 21.5935 29.5C20.4892 29 19.6168 28.2604 18.9765 27.281C18.3362 26.3017 18.0107 25.2079 18 23.9995H19C19.0103 25.0515 19.2993 25.9942 19.867 26.8275C20.4347 27.6609 21.2082 28.2702 22.1875 28.6555C23.1668 29.0305 24.1487 29.1035 25.133 28.8745C26.1173 28.6455 26.9688 28.1455 27.6875 27.3745H26.2345C26.0885 27.3745 25.9687 27.3277 25.875 27.234C25.7813 27.1404 25.7345 27.0232 25.7345 26.8825C25.7345 26.7419 25.7813 26.6247 25.875 26.531C25.9687 26.4374 26.0885 26.3852 26.2345 26.3745H28.5625C28.6978 26.3849 28.8125 26.437 28.9065 26.531C29.0005 26.625 29.0527 26.7397 29.063 26.875V29.203C29.0527 29.349 29.0005 29.4689 28.9065 29.5625C28.8125 29.6562 28.6953 29.703 28.555 29.703C28.4147 29.703 28.2975 29.6562 28.2035 29.5625C28.1095 29.4689 28.0627 29.349 28.063 29.203V28.4215L28.0625 28.422ZM20.3125 20.625H21.7655C21.9115 20.625 22.0313 20.6719 22.125 20.7655C22.2187 20.8592 22.2655 20.9764 22.2655 21.117C22.2655 21.2577 22.2187 21.3749 22.125 21.4685C22.0313 21.5622 21.9115 21.6144 21.7655 21.625H19.4375C19.3022 21.6147 19.1875 21.5625 19.0935 21.4685C18.9995 21.3745 18.9473 21.2599 18.937 21.1245V18.7965C18.9473 18.6505 18.9995 18.5307 19.0935 18.437C19.1875 18.3434 19.3047 18.2965 19.445 18.2965C19.5853 18.2965 19.7025 18.3434 19.7965 18.437C19.8905 18.5307 19.9373 18.6505 19.937 18.7965V19.578C20.8433 18.7654 21.872 18.2654 23.023 18.078C24.174 17.8907 25.3068 18.0314 26.4215 18.5C27.5258 19 28.3957 19.7397 29.031 20.719C29.6663 21.6984 29.9893 22.7922 30 24.0005H29C28.9897 22.9485 28.7007 22.0059 28.133 21.1725C27.5653 20.3392 26.7918 19.7299 25.8125 19.3445C24.8332 18.9695 23.8513 18.8965 22.867 19.1255C21.8827 19.3545 21.0312 19.8545 20.3125 20.6255V20.625Z" fill="#484848"/>
</svg>
