<svg width="16" height="16" viewBox="0 0 16 16" fill="none" xmlns="http://www.w3.org/2000/svg">
<path d="M5.99988 1.5C5.99988 1.354 6.04671 1.23417 6.14038 1.1405C6.23404 1.04683 6.35388 1 6.49988 1C6.64588 1 6.76571 1.04683 6.85938 1.1405C6.95304 1.23417 6.99988 1.354 6.99988 1.5V13.797C6.99988 13.9013 6.97121 13.9925 6.91388 14.0705C6.85654 14.1485 6.78104 14.2083 6.68738 14.25C6.59371 14.2917 6.49738 14.3022 6.39838 14.2815C6.29938 14.2608 6.21338 14.214 6.14038 14.141L1.49987 9.5005C1.40621 9.40683 1.35938 9.28967 1.35938 9.149C1.35938 9.00833 1.40621 8.89117 1.49987 8.7975C1.60421 8.69317 1.72137 8.641 1.85137 8.641C1.98137 8.641 2.09854 8.69317 2.20288 8.7975L5.99988 12.5945V1.5005V1.5ZM8.99988 2.203C8.99988 2.09867 9.02854 2.0075 9.08588 1.9295C9.14321 1.8515 9.21871 1.79167 9.31238 1.75C9.40604 1.70833 9.50237 1.69783 9.60137 1.7185C9.70037 1.73917 9.78638 1.786 9.85938 1.859L14.4999 6.4995C14.5935 6.59317 14.6404 6.71033 14.6404 6.851C14.6404 6.99167 14.5935 7.10883 14.4999 7.2025C14.3955 7.30683 14.2784 7.359 14.1484 7.359C14.0184 7.359 13.9012 7.30683 13.7969 7.2025L9.99988 3.4055V14.4995C9.99988 14.6455 9.95304 14.7653 9.85938 14.859C9.76571 14.9527 9.64588 14.9995 9.49988 14.9995C9.35388 14.9995 9.23404 14.9527 9.14038 14.859C9.04671 14.7653 8.99988 14.6455 8.99988 14.4995V2.2025V2.203Z" fill="#484848"/>
</svg>
